<svg xmlns="http://www.w3.org/2000/svg" width="137" height="48" viewBox="0 0 137 48" fill="#E06E1B">
  <path d="M0 10.4856H5.07523V14.6873C5.87619 13.2868 7.03671 12.155 8.55678 11.2918C10.0933 10.4287 11.6788 9.99707 13.3133 9.99707C16.517 9.99707 19.1159 11.1696 21.11 13.5148C23.1042 15.8436 24.1013 18.8402 24.1013 22.5044C24.1013 26.1361 23.0634 29.0757 20.9874 31.3232C18.9116 33.5705 16.182 34.6942 12.7984 34.6942C11.1639 34.6942 9.67646 34.3767 8.33616 33.7416C6.99579 33.0902 5.97421 32.1456 5.27136 30.9079V44.1236H0V10.4856ZM11.9403 30.0528C13.8854 30.0528 15.5199 29.3526 16.8439 27.952C18.1679 26.5515 18.8299 24.7356 18.8299 22.5044C18.8299 20.2733 18.1597 18.4249 16.8194 16.9592C15.4791 15.4772 13.8527 14.7362 11.9403 14.7362C10.126 14.7362 8.52407 15.4772 7.13473 16.9592C5.76173 18.4249 5.07523 20.2733 5.07523 22.5044C5.07523 24.7356 5.7536 26.5515 7.11024 27.952C8.46689 29.3526 10.0769 30.0528 11.9403 30.0528Z"/>
  <path d="M26.1143 10.4856H31.3856V13.9545C31.8596 12.6842 32.5871 11.7071 33.5678 11.0231C34.5649 10.3391 35.7662 9.99707 37.1719 9.99707C39.1331 9.99707 40.7683 10.6485 42.0755 11.9514C43.3828 13.2054 44.0368 14.7851 44.0368 16.6905C44.0368 17.7979 43.9224 18.7994 43.6937 19.6952H38.4714C38.6022 19.1089 38.6675 18.4412 38.6675 17.692C38.6675 16.7638 38.3324 15.9983 37.6623 15.3958C37.0085 14.7932 36.1748 14.4919 35.1615 14.4919C34.0172 14.4919 33.1019 14.8502 32.4154 15.5668C31.7289 16.2834 31.3856 17.2442 31.3856 18.4493V34.2057H26.1143V10.4856Z"/>
  <path d="M47.6448 31.1765C45.3565 28.8314 44.2119 25.8919 44.2119 22.3579C44.2119 18.8239 45.3565 15.8844 47.6448 13.5392C49.9492 11.1778 52.8832 9.99707 56.4465 9.99707C60.0099 9.99707 62.9438 11.1778 65.2491 13.5392C67.5535 15.8844 68.7057 18.8239 68.7057 22.3579C68.7057 25.8919 67.5535 28.8314 65.2491 31.1765C62.9438 33.5217 60.0099 34.6942 56.4465 34.6942C52.8832 34.6942 49.9492 33.5217 47.6448 31.1765ZM61.4485 27.8299C62.7727 26.3967 63.4344 24.5728 63.4344 22.3579C63.4344 20.143 62.7727 18.319 61.4485 16.8859C60.1243 15.4528 58.457 14.7362 56.4465 14.7362C54.4361 14.7362 52.7688 15.4528 51.4446 16.8859C50.1373 18.319 49.4833 20.143 49.4833 22.3579C49.4833 24.5728 50.1373 26.3967 51.4446 27.8299C52.7688 29.2467 54.4361 29.9551 56.4465 29.9551C58.457 29.9551 60.1243 29.2467 61.4485 27.8299Z"/>
  <path d="M99.3513 10.4857H104.623V34.2057H99.3513V10.4857ZM99.1064 6.43061V0.689941H104.868V6.43061H99.1064Z"/>
  <path d="M110.093 31.1765C107.805 28.8314 106.661 25.8919 106.661 22.3579C106.661 18.8239 107.805 15.8844 110.093 13.5392C112.398 11.1778 115.332 9.99707 118.896 9.99707C122.459 9.99707 125.393 11.1778 127.697 13.5392C130.002 15.8844 131.155 18.8239 131.155 22.3579C131.155 25.8919 130.002 28.8314 127.697 31.1765C125.393 33.5217 122.459 34.6942 118.896 34.6942C115.332 34.6942 112.398 33.5217 110.093 31.1765ZM123.897 27.8299C125.221 26.3967 125.884 24.5728 125.884 22.3579C125.884 20.143 125.221 18.319 123.897 16.8859C122.574 15.4528 120.906 14.7362 118.896 14.7362C116.885 14.7362 115.218 15.4528 113.894 16.8859C112.587 18.319 111.932 20.143 111.932 22.3579C111.932 24.5728 112.587 26.3967 113.894 27.8299C115.218 29.2467 116.885 29.9551 118.896 29.9551C120.906 29.9551 122.574 29.2467 123.897 27.8299Z"/>
  <path d="M87.639 10.2178C92.8113 10.9245 97.1702 15.2521 97.1702 21.7577C97.1702 28.2707 93.001 32.8016 87.1705 34.1067C84.4145 34.7238 81.3391 34.6219 78.1663 33.7608C78.3247 34.8926 78.5264 35.994 78.7543 37.0465C79.2829 39.4965 79.9361 41.6046 80.4555 43.0974C80.7147 43.8424 80.9401 44.4305 81.0977 44.8271C81.1765 45.0253 81.2383 45.1755 81.2798 45.2731C81.3002 45.3219 81.3154 45.3576 81.3247 45.3796C81.3298 45.3906 81.3332 45.3982 81.3349 45.4023L81.3357 45.405C81.3357 45.4046 81.3357 45.4041 79.1525 46.3577C76.97 47.3113 76.97 47.3107 76.97 47.3101L76.9692 47.3085L76.9675 47.3042L76.9616 47.2917C76.9582 47.2845 76.9548 47.2755 76.9497 47.2647L76.9438 47.2506C76.9294 47.2162 76.9082 47.1678 76.8828 47.1059C76.8303 46.9821 76.7574 46.8045 76.6668 46.5774C76.4863 46.1233 76.2364 45.4704 75.9525 44.6537C75.3849 43.0231 74.6733 40.7255 74.0938 38.0458C73.6854 36.153 73.3338 34.0294 73.1542 31.7891C71.3954 30.8788 69.6408 29.735 67.9277 28.3509L70.9303 24.6624C71.6597 25.2515 72.3883 25.7836 73.1127 26.2615C73.2821 23.9149 73.7134 21.5427 74.5216 19.2583C76.9107 12.5095 82.4193 9.50456 87.639 10.2178ZM77.7944 28.659C80.9215 29.8128 83.8096 29.9918 86.1259 29.4732C89.9477 28.6176 92.4038 25.8825 92.4038 21.7577C92.4038 17.6253 89.8037 15.307 86.9917 14.9229C84.2281 14.5452 80.7274 16.0043 79.0169 20.8377C78.1409 23.3146 77.7969 25.9939 77.7944 28.659Z"/>
  <path d="M132.734 35.5676C132.269 35.1003 132.036 34.5323 132.036 33.8637C132.036 33.1951 132.269 32.6288 132.734 32.1649C133.2 31.6976 133.77 31.4639 134.445 31.4639C135.119 31.4639 135.689 31.6976 136.154 32.1649C136.62 32.6288 136.853 33.1951 136.853 33.8637C136.853 34.5323 136.62 35.1003 136.154 35.5676C135.689 36.0315 135.119 36.2636 134.445 36.2636C133.77 36.2636 133.2 36.0315 132.734 35.5676ZM135.744 35.1635C136.097 34.8052 136.273 34.372 136.273 33.8637C136.273 33.3554 136.097 32.9222 135.744 32.564C135.394 32.2058 134.962 32.0267 134.445 32.0267C133.928 32.0267 133.492 32.2058 133.14 32.564C132.791 32.9222 132.616 33.3554 132.616 33.8637C132.616 34.372 132.791 34.8052 133.14 35.1635C133.492 35.5182 133.928 35.6956 134.445 35.6956C134.962 35.6956 135.394 35.5182 135.744 35.1635ZM133.464 35.1737V32.5436H134.676C134.94 32.5436 135.146 32.6101 135.297 32.7431C135.451 32.8728 135.528 33.0433 135.528 33.2548C135.528 33.5857 135.361 33.8125 135.025 33.9354C135.302 34.0343 135.441 34.2475 135.441 34.5749C135.441 34.7285 135.45 34.8411 135.467 34.9127C135.483 34.9843 135.522 35.0492 135.579 35.1072V35.1737H134.958C134.89 35.0406 134.856 34.8411 134.856 34.5749C134.856 34.4113 134.819 34.2935 134.747 34.2219C134.676 34.1503 134.564 34.1145 134.413 34.1145H134.034V35.1737H133.464ZM134.034 33.613H134.604C134.717 33.613 134.804 33.5874 134.866 33.5363C134.928 33.4816 134.958 33.4049 134.958 33.306C134.958 33.2207 134.926 33.1542 134.861 33.1064C134.799 33.0587 134.713 33.0348 134.604 33.0348H134.034V33.613Z"/>
</svg>
